<svg xmlns="http://www.w3.org/2000/svg" width="128" height="128" viewBox="0 0 128 128"><title>favicon.svg</title><g fill="#000" fill-rule="evenodd"><path d="M127.445 29.754c-.025-.02-.045-.045-.075-.06l-.043-.02-38.533-19.24c-.26-.13-.535-.22-.81-.29-.35-.09-.704-.144-1.06-.144-1.476 0-2.945.74-3.74 2.03L61 48.03l27.84 45.176 38.723-62.838c.128-.21.067-.468-.118-.614M49 40v41l36 18-36-59M91 101.79l29.945 14.993c3.896 1.95 7.055.585 7.055-3.05V41.59l-37 60.2M5.89 11.647l-1.174-.587c-.68-.34-1.327-.5-1.912-.5C1.154 10.56 0 11.833 0 13.97v81.14c0 2.172 1.59 4.743 3.537 5.715l32.568 16.33c.85.424 1.66.625 2.39.625 2.06 0 3.505-1.592 3.505-4.263V30c0-.156-.088-.3-.23-.37L5.89 11.648z"/></g></svg>