<svg xmlns="http://www.w3.org/2000/svg" viewBox="0 0 50 50" style="fill: #fff;">
  <path d="M18,41.578C18,42.469,17.525,43,16.848,43c-0.24,0-0.506-0.067-0.786-0.208L5.163,37.273C4.523,36.949,4,36.091,4,35.367 V8.311c0-0.713,0.38-1.137,0.922-1.137c0.193,0,0.406,0.054,0.629,0.167l0.382,0.193c0.002,0.001,0.003,0.001,0.005,0.002 l12.01,6.081c0.022,0.011,0.036,0.031,0.052,0.048V41.578z M30.587,8.881l0.732-1.204C31.581,7.247,32.064,7,32.549,7 c0.116,0,0.231,0.017,0.344,0.046c0.087,0.02,0.177,0.051,0.27,0.098l12.67,6.415c0.001,0.001,0.001,0.002,0.002,0.002l0.012,0.006 c0.008,0.004,0.009,0.014,0.016,0.02c0.064,0.048,0.09,0.134,0.047,0.205L33.293,34.557l-1.288,2.12l-8.359-16.371L30.587,8.881z M20,30.607V17.564l8.982,17.592l-8.079-4.091L20,30.607z M46,41.578c0,0.838-0.497,1.314-1.228,1.314 c-0.327,0-0.701-0.095-1.098-0.296l-1.806-0.915v0l-8.078-4.091L46,17.495V41.578z" />
</svg>
